<svg xmlns="http://www.w3.org/2000/svg" xmlns:xlink="http://www.w3.org/1999/xlink" version="1.0" x="0px" y="0px" viewBox="0 0 100 125" enable-background="new 0 0 100 100" xml:space="preserve"><path d="M89.3883057,63.5711174c-0.111702-1.3076019-0.3978577-2.5260277-0.7847519-3.6657486  c-0.1881332-0.5739555-0.4124451-1.1234474-0.6491776-1.6664352c-0.1203995-0.2701149-0.2473907-0.5383911-0.3805466-0.8047523  l-0.0299454-0.0573616c0.4565201-0.8611641,0.7745819-1.7906303,0.9692688-2.7195549  c0.2414017-1.1596985,0.2891846-2.3203278,0.213089-3.4325371c-0.0767899-1.1153259-0.2677917-2.1812973-0.5536804-3.2161179  c-0.0677109-0.260334-0.1289902-0.5215302-0.2038956-0.780407l-0.2771988-0.7680969l-0.2822418-0.7660675  c-0.1008911-0.2530975-0.2343903-0.4965019-0.351532-0.744545c-0.9434662-1.9823341-2.3668137-3.7796555-4.0758972-5.1449585  c-1.7065048-1.3759346-3.64711-2.3311844-5.5919189-2.9726067c-1.9509354-0.6429214-3.9170914-0.9905624-5.8432922-1.1672745  c-1.9281082-0.174614-3.8219986-0.1765938-5.6747437-0.0701485c-1.8528442,0.1091499-3.666729,0.321949-5.4415207,0.6269722  c-0.1622391,0.0273743-0.3226089,0.0595474-0.4841652,0.0885353c0.5369568-0.75037,1.1873207-1.4662895,1.9236488-2.177475  c0.4082603-0.3954926,0.8151512-0.7896652,1.220726-1.1825447l0.3255692-0.3254318l0.3293915-0.3559685  c0.2249031-0.2351189,0.4216843-0.4833012,0.6281128-0.7272949c0.8059082-0.9856052,1.4968719-2.0462074,2.0910339-3.1621704  c1.1555557-2.2427807,1.8861465-4.7511044,1.9423981-7.2778835c0.0846481-2.5238647-0.4341965-4.9900246-1.2991791-7.1951923  c-0.2372437-0.5403929-0.4735641-1.0786467-0.7089386-1.6147385c-0.2667694-0.513361-0.5552979-1.0084953-0.8338089-1.5089998  c-0.5459213-0.9984369-1.2419739-1.9736423-2.0356026-2.8840661c-0.7978134-0.909286-1.7286453-1.7635975-2.8428345-2.4527125  c-1.1085014-0.688273-2.4124146-1.196969-3.7958794-1.374248c-1.3821869-0.1886559-2.816349,0.0056434-4.1017876,0.4821873  c-1.2835693,0.4970455-2.431572,1.2683492-3.3505287,2.3112941c-0.4556313,0.5276275-0.8634834,1.1131878-1.1774902,1.7948618  c-0.3087311,0.6844959-0.5321808,1.4627171-0.5658569,2.3247423c-0.0357704,0.8668261,0.1484489,1.8095608,0.5746841,2.5910587  l0.2385559,0.4915848c0.0328598,0.0704927,0.0753632,0.133954,0.1022148,0.2094078l0.0781822,0.228385  c0.4460754,1.2097797,0.58424,2.6692429,0.4427071,4.0870647c-0.0038681,0.3559914-0.0941124,0.7121429-0.1479034,1.0670872  l-0.0875587,0.5322475c-0.0420952,0.1760273-0.0958405,0.3506451-0.1420784,0.5257397  c-0.1034851,0.3483448-0.1714287,0.7025394-0.2967148,1.0446281c-0.1284256,0.3423843-0.2561226,0.682766-0.3830452,1.0211239  c-0.1086311,0.3447952-0.2940331,0.6655865-0.4456215,0.9949322c-0.1613274,0.3260918-0.305954,0.6574421-0.4755211,0.9773445  c-0.1866302,0.3138504-0.3720779,0.6257668-0.5563431,0.9357491c-0.1903152,0.3076153-0.347641,0.6305218-0.5714073,0.9175682  c-0.2093391,0.2951469-0.4173126,0.5884056-0.62397,0.8797512c-0.2116127,0.2888889-0.3958778,0.5931835-0.6366653,0.8596134  c-0.4580002,0.5503597-0.9098091,1.0933685-1.3554764,1.6289368c-0.487442,0.5089245-0.9680595,1.0107708-1.4418488,1.5054722  c-0.1193237,0.1234417-0.2340965,0.2503662-0.35606,0.3701687l-0.3787231,0.34548  c-0.2515717,0.2302704-0.5013237,0.4588852-0.7491646,0.6857452c-0.9644661,0.9382057-2.0212212,1.7284203-3.003437,2.5434799  c-1.0404625,0.8537865-2.0466614,1.6793823-3.01754,2.4760818c-3.8005676,3.3715553-6.3934231,6.9567947-7.9039021,10.1078835  c-0.1200066,0.2585793-0.2306824,0.5124741-0.3373547,0.7641602c-0.7327805-0.2402649-1.4815807-0.3697586-2.2636471-0.403389  c-0.9351578-0.0416183-1.8973923,0.0628242-2.833416,0.3229523c-0.9354763,0.2580566-1.849472,0.6589432-2.6817341,1.1868668  c-0.8329449,0.5278091-1.5865231,1.1672287-2.2702446,1.8651466c-1.3333139,1.4187584-2.3411484,3.0629845-3.0956821,4.7393875  c-0.7562637,1.6810913-1.2716036,3.4011154-1.6533298,5.0993614c-0.3945608,1.7016602-0.5876083,3.3792686-0.7461605,5.0249519  c-0.1073093,1.6670532-0.1683817,3.3130112-0.0317192,4.9425125c0.0341768,0.8094635,0.1676989,1.6194077,0.2680912,2.4097061  c0.152545,0.7944946,0.286068,1.5744858,0.5095606,2.3385086c0.4132643,1.5249786,0.964056,2.9879227,1.7121267,4.3078537  c0.7366495,1.3213425,1.6315317,2.5030441,2.6291723,3.4816818c0.9962759,0.9808731,2.0894861,1.7551804,3.1821489,2.3246536  c2.1975212,1.1472321,4.3369293,1.4568481,6.0267124,1.4441757c1.7052555-0.023941,3.0055752-0.3946991,3.8402481-0.7611389  c0.1285629-0.058815,0.2426529-0.1164322,0.349781-0.1730194c1.1646118,1.2266617,2.4774456,2.3128662,3.894495,3.2197342  c1.6353073,1.0349121,3.3979492,1.8175049,5.1868515,2.3967438c1.7912636,0.5771637,3.6130676,0.9455948,5.4113884,1.1446075  c1.7989578,0.1911392,3.5743408,0.2237015,5.3043098,0.1357498c1.4426231-0.0737,2.8516617-0.2351837,4.2281189-0.4616165  c0.3724403,0.1840363,0.7475243,0.3580399,1.1271591,0.508606c0.5284462,0.2385788,1.066494,0.4046173,1.6017227,0.5991211  c0.5364532,0.1816483,1.0756416,0.3228836,1.6137352,0.4832382c0.5363197,0.1279907,1.0705452,0.2554855,1.6026802,0.3824997  c0.53022,0.1344528,1.0815582,0.2063141,1.6206093,0.3096848c2.1724014,0.3552856,4.4152946,0.4989319,6.7113914,0.1772537  c1.146225-0.2045593,2.3062439-0.4521255,3.4245682-0.966217c1.1146927-0.4911041,2.1914291-1.1585388,3.1140671-2.0144424  c0.9163666-0.8600693,1.6666183-1.8778915,2.2220535-2.9466858c0.5582352-1.0700226,0.9303589-2.1840973,1.1672516-3.2813339  c0.0592575-0.2751694,0.110199-0.5494461,0.1535492-0.8227234c0.0942688-0.0231705,0.1889267-0.0464249,0.2830887-0.0695419  c0.3135757-0.0895386,0.6273346-0.2017593,0.9399338-0.3036575c1.2452316-0.4364014,2.5001297-1.0076294,3.6425552-1.8891296  c1.141655-0.8606415,2.1601868-2.0138931,2.8377838-3.3434982c0.6874313-1.3259659,1.0237198-2.7761688,1.0907745-4.1379013  c0.0718842-1.3570862-0.0787506-2.6464386-0.3523483-3.8572693c0.2621536-0.214386,0.5173416-0.4431152,0.7618866-0.6906128  c1.0422821-1.0415573,1.8410721-2.4026566,2.2520828-3.8063278C89.4237366,66.2848892,89.4977341,64.8735504,89.3883057,63.5711174z   M63.97995,91.9487991c-6.461956,0.7456131-13.1526413-3.3819122-13.1526413-3.3819122  c-0.0154724-0.0124207-0.0330849-0.0235977-0.04842-0.036087c-1.4659271-1.176651-2.2220078-2.7338409-2.3691368-4.2369003  c-0.1570511-1.506752,0.2179413-2.8797684,0.6930542-3.8845749c0.2449265-0.5033264,0.5173416-0.9206619,0.7791061-1.2616577  c0.2741432-0.3228836,0.524395-0.5917282,0.7549896-0.7555847c0.1099472-0.095932,0.2156181-0.1574097,0.3067284-0.2135239  c0.0900154-0.0617371,0.1684723-0.1031494,0.2335968-0.1276779c0.1297455-0.0597076,0.1960945-0.0901947,0.1960945-0.0901947  c-0.5002747,0.0574722-1.0160255,0.3012238-1.4753456,0.6201248c-0.4647789,0.3195572-0.8730812,0.7292252-1.2413368,1.1720505  c-0.3708992,0.4431381-0.6884575,0.9349289-0.9509506,1.4575043c-0.2728691,0.5191422-0.4770203,1.0752563-0.6316605,1.6490326  c-0.1617393,0.5740204-0.2313652,1.1719589-0.2649078,1.7772675c-0.0030479,0.6034698,0.0268059,1.221138,0.1688843,1.820694  c0.1837654,0.876152,0.5295372,1.7245026,0.9961853,2.4943085c-2.0888481,0.2067871-4.1100693,0.2401428-6.0121956,0.0672836  c-2.2999611-0.1943665-4.4336357-0.6637268-6.3167381-1.3908157c-1.8857002-0.7193298-3.5381203-1.656311-4.9212627-2.7044678  c-2.7538662-2.1237488-4.4958019-4.5035172-5.5593853-6.1964111c-0.5684948-0.8348618-0.9060783-1.5432892-1.1729412-2.005455  c-0.2603092-0.4673996-0.3964252-0.711731-0.3964252-0.711731c0.8623447,3.7612457,2.4582424,7.4235764,5.0522366,10.3527908  c0.0767269,0.0869598,0.1565495,0.1711578,0.2347336,0.2568283c-0.1480865,0.0157623-0.295351,0.0278702-0.4411621,0.0361557  c-0.5130634,0.0319443-1.0190754-0.0147018-1.5083389-0.0646057c-0.9823494-0.130127-1.9139118-0.3829956-2.7809887-0.7194672  c-0.8672581-0.3370361-1.6684837-0.7602234-2.3943481-1.243454c-0.7234058-0.4902191-1.3639851-1.0480881-1.9312057-1.6405411  c-1.1378078-1.1875763-1.9331627-2.5617294-2.5153542-3.9796448c-0.582056-1.4207993-0.9349766-2.9084778-1.1475468-4.3974991  c-0.2111607-1.4907761-0.2822447-2.980751-0.3045902-4.4360733c0.017066-0.7336655-0.0024118-1.4497681,0.0465555-2.1663742  c0.0143805-0.3571472,0.0286703-0.7110901,0.0428238-1.0617828c0.0259399-0.3545837,0.051652-0.705864,0.0770922-1.0538483  c0.0902882-1.3946991,0.2419243-2.7115631,0.4088955-3.9637794c0.1858578-1.2442513,0.4022503-2.418148,0.6745281-3.5055771  c0.283247-1.0793076,0.5990314-2.0848885,0.9789829-2.9889641c0.131794-0.305706,0.2713223-0.5964355,0.414402-0.8801842  c3.057909-4.1679344,5.9734688-4.3197289,7.1154633-4.1817436c-0.7293224,2.1465073-0.989769,3.9629402-1.0295887,5.2699013  c-0.0192966,0.8871689,0.0189304,1.5540771,0.0850105,1.9917564c0.02248,0.2208748,0.0603447,0.3798828,0.078001,0.4878998  c0.0206604,0.1057854,0.0342236,0.1506081,0.0342236,0.1506081c-0.016201-1.0078316,0.1500874-2.0755119,0.3922386-3.0835533  l0.1932755-0.758606l0.2435627-0.7453613c0.1430779-0.4999847,0.3709869-0.9759827,0.5588913-1.4591446  c0.8216591-1.9153481,1.949091-3.6778526,3.2235146-5.3054237c2.6037331-3.2309799,5.8347588-5.9005203,9.336834-8.1088028  c3.6880646-2.3583984,7.3126488-5.1136742,10.1894798-8.661438c1.4782143-1.7311726,2.7106781-3.7217674,3.6710472-5.8624496  c0.9488106-2.1464157,1.5675468-4.5091572,1.6036797-6.975296l0.0015488-0.9249172l-0.0878334-0.9352942l-0.0482368-0.4669647  c-0.0204353-0.1558895-0.0586166-0.3133497-0.0879707-0.4698086l-0.1965523-0.9381838  c-0.2002831-0.6280422-0.3749008-1.2578373-0.6851768-1.8654232l-0.2149849-0.4567709  c0.0024147-0.0182028,0.007782-0.0123549-0.0014076-0.0144482c0.0054131-0.0046883,0.0102386-0.0074415,0.0018654-0.0078278  c0.0048676-0.003459,0.0112381-0.0055523,0.0029106-0.0068951c0.001503-0.0177479,0.0156555-0.140872,0.0919724-0.3039293  c0.0740433-0.1639681,0.2025604-0.3632498,0.3702164-0.5547276c0.3474121-0.3834105,0.8430901-0.7123928,1.3663979-0.8894901  c0.2613564-0.0963192,0.5341339-0.1357975,0.8045464-0.171977c0.2736893-0.0039597,0.5478325-0.0192499,0.8261642,0.0420504  c0.5549316,0.0864658,1.12743,0.3156023,1.6897354,0.6864977c0.5635796,0.3626814,1.1120491,0.8600912,1.6153755,1.4471302  c0.5025978,0.5892458,0.9858551,1.223114,1.396389,1.962925c1.7579536,2.8760347,2.6407318,5.9777002,2.2716103,8.928937  c-0.1677437,1.4739132-0.6223755,2.9059563-1.2902603,4.2304173c-0.1685638,0.3304386-0.335762,0.6606045-0.5343628,0.9731579  c-0.1806717,0.3233624-0.3958359,0.622036-0.5988045,0.9278088c-0.4330597,0.6056061-0.8567924,1.111639-1.4252853,1.7171555  c-1.1277504,1.2017479-2.4130058,2.6029606-3.3417473,4.2630939c-0.9626884,1.640564-1.4964142,3.5797997-1.5614929,5.4109802  c-0.0413208,0.4619331,0.0045509,0.9096489,0.0248489,1.3568382c0.0082359,0.4512444,0.1002541,0.8754501,0.1630554,1.304348  c0.0551109,0.4329453,0.1660156,0.8385201,0.2737808,1.2419319c0.0534744,0.2016716,0.1067619,0.4026604,0.1598701,0.6029434  c0.0536118,0.2001266,0.1008034,0.3365364,0.1515465,0.5071716c0.3946495,1.3004341,0.6840858,2.5918083,0.8675766,3.8534927  c0.3663445,2.5241394,0.3055,4.9317284-0.1459923,7.0852203c-0.4354248,2.1604118-1.2711945,4.0467911-2.2358856,5.6376839  c-0.9790268,1.5863838-2.0987244,2.8709145-3.1597595,3.9071922c-1.0694084,1.0300217-2.066227,1.8380737-2.9147835,2.4413147  c-0.8453674,0.6082001-1.5201263,1.0493622-1.9855423,1.3283005c-0.4629135,0.286026-0.7022438,0.4339294-0.7022438,0.4339294  c2.374958-0.9665375,4.657402-2.1823654,6.682991-3.7708282c0.9306526-0.73246,1.8062859-1.545311,2.6084671-2.4276581  c-0.0638962,0.2125473-0.1191864,0.4276009-0.1562767,0.6459274c-0.2416496,1.3621216,0.0101013,2.814621,0.6446762,4.0670395  c0.0312195,0.0627594,0.0669899,0.1227188,0.0998917,0.1844482c-0.3231583,0.2577133-0.6308861,0.5385513-0.9222336,0.8388824  c-0.8925171,0.9803238-1.6277542,2.1456223-2.0548515,3.4397049c-0.4382057,1.2866669-0.620285,2.698822-0.4048004,4.0961456  c0.2010574,1.3935623,0.7679138,2.7648087,1.6335793,3.8958359c0.8593864,1.1352386,1.9483147,2.070694,3.1196632,2.786499  c1.1738968,0.7138901,2.4141426,1.2666855,3.66959,1.6919174c2.5154495,0.8413696,5.0720329,1.2129898,7.5575829,1.4023056  c1.5095673,0.1132507,3.0240021,0.1641083,4.5454483,0.107193C71.8277359,88.9253616,70.4419556,91.203186,63.97995,91.9487991z   M62.3744507,82.1221771c-2.7606926-0.4259338-5.2258492-1.2713776-6.8624344-2.6918106  c-0.818882-0.7010651-1.4248314-1.5265427-1.8106537-2.4068222c-0.3881416-0.8795929-0.5569344-1.8090591-0.5635796-2.6955414  c-0.0040474-1.7820969,0.5694962-3.3491898,1.2479401-4.4565735c0.2593079-0.4414368,0.5349083-0.8152008,0.8075981-1.1332169  c0.6124535,0.9867249,1.4316101,1.8319778,2.3290863,2.5159988c1.0858841,0.8335114,2.2807579,1.4699936,3.4974785,1.9735031  c1.2189941,0.5034409,2.4636116,0.8774948,3.7078667,1.1813354c2.4912338,0.5740509,4.978096,0.8599548,7.4126282,0.9797821  c2.4526443,0.1047134,4.9178543,0.042778,7.404129-0.4144745c0.5179291-0.1144485,1.0365295-0.2335052,1.5542984-0.3730316  C79.6083755,84.9658356,62.3744507,82.1221771,62.3744507,82.1221771z M84.2044601,65.8962479  c-0.1064224,0.6212845-0.3169479,1.1612167-0.6355515,1.6501617c-0.6234665,0.9747314-1.7529755,1.7905655-3.1408539,2.3424225  c-1.3798447,0.5579147-2.9225388,0.921875-4.478775,1.1364899c-1.5613174,0.2083359-3.1225357,0.3255692-4.6621857,0.3572006  c-1.5374603,0.0395432-3.0219574,0.018425-4.4321747-0.0950699c-2.8172607-0.2133713-5.38377-0.7453842-7.3887444-1.7366333  c-1.0066071-0.486763-1.8456955-1.1018372-2.4907799-1.7970047c-0.1018486-0.1106491-0.1889076-0.2270203-0.2799263-0.3419037  l-0.0820961-0.100235c-0.439888-0.5809402-0.750576-1.2062073-0.9245529-1.8388443  c-0.2044258-0.7938309-0.2212181-1.5994682-0.0506973-2.2694931c0.041687-0.1661987,0.0909271-0.3259125,0.1511803-0.4690132  c0.0588875-0.1488571,0.1570053-0.317379,0.2303619-0.4712181c0.1680183-0.3070717,0.3478699-0.5911598,0.53582-0.850605  c0.7606316-1.0363464,1.586525-1.680954,2.1531982-2.0770607c0.1796684-0.1225777,0.3331223-0.2189178,0.4628677-0.2970352  c0.2755547,0.309166,0.5726357,0.5874939,0.8807297,0.8414116c0.8927002,0.7310715,1.8705902,1.2736969,2.8654976,1.7324448  c1.9966965,0.9099693,4.0843124,1.4636955,6.1874542,1.8198013c2.1061401,0.3420219,4.2388535,0.4640083,6.3739395,0.3272743  c2.1321259-0.1394806,4.2798615-0.5456009,6.3468933-1.4041443c0.5974579-0.2487984,1.1832886-0.5502243,1.7523956-0.8944969  c0.0100861,0.0278511,0.0223465,0.0555191,0.032135,0.0833931c0.2813339,0.7761765,0.4875565,1.5537148,0.5923843,2.2935944  C84.3085403,64.5777893,84.3109741,65.2768707,84.2044601,65.8962479z M84.3640366,54.16436  c-0.2081833,1.0056076-0.6135483,1.910183-1.2549286,2.6815529c-1.2659149,1.5641327-3.365181,2.569397-5.5108719,3.1327934  c-2.1655731,0.5659943-4.4211197,0.7378349-6.5678101,0.6703911c-2.1495514-0.0708351-4.2183762-0.3821602-6.0803223-0.9232826  c-0.9322433-0.2674065-1.8073311-0.6029663-2.5955391-0.9981194c-0.7801094-0.3985176-1.4738426-0.8726044-1.9386711-1.3939972  c-0.2342758-0.2586021-0.405117-0.523941-0.5002289-0.7795868c-0.0447807-0.1281967-0.0796394-0.2546196-0.0967064-0.3819542  c-0.0177498-0.1574135-0.0184326-0.3728981-0.0303535-0.5551834c-0.0101967-0.7556267,0.1056252-1.4750481,0.3367615-2.1359024  c0.4584999-1.3276711,1.3820534-2.3940735,2.393486-3.1913185c1.0141602-0.8060493,2.11306-1.3616867,3.131134-1.7762489  c2.0557632-0.8143997,3.7980576-1.0753479,4.9561157-1.1673203c0.582695-0.0444832,1.0254974-0.0378418,1.3223038-0.031311  c0.2953491,0.0170898,0.4462128,0.0258064,0.4462128,0.0258064s-6.6415787-2.4980164-13.0485649,1.1024017  c-0.0606651-1.1393127-0.1945038-2.2689743-0.3895531-3.3790207c-0.0591621-0.3083878-0.1146393-0.6179619-0.1806717-0.9243698  c-0.0658035-0.3040466-0.1418953-0.6292953-0.1760712-0.8662605l-0.1358452-0.7672501  c-0.0244827-0.1636734-0.0354042-0.3260269-0.0460548-0.4879456c0.1684723-0.0407982,0.3358994-0.0837593,0.5048752-0.1233292  c0.7601738-0.1709747,1.5213089-0.3361702,2.2844429-0.4713097c1.5244484-0.2800598,3.0467567-0.4908333,4.5510521-0.6193275  c3.0052109-0.2544861,5.9558945-0.191227,8.6493759,0.3551254c2.6753616,0.5716133,5.064888,1.649395,6.7504807,3.3416328  c0.8372269,0.8495102,1.5253601,1.8239899,2.0616074,2.8998375c0.1285858,0.2720032,0.2316895,0.5596428,0.3515091,0.8366776  l0.1757812,0.4181328l0.1314545,0.4415245c0.0887375,0.2944412,0.1771851,0.587925,0.2653351,0.8804321  c0.0701294,0.2938271,0.1405563,0.5907707,0.192276,0.881958c0.1089706,0.5846519,0.1615982,1.1556702,0.1800995,1.7118568  C84.4980087,53.1231003,84.4573746,53.6565742,84.3640366,54.16436z"/><text x="0" y="115" fill="#000000" font-size="5px" font-weight="bold" font-family="'Helvetica Neue', Helvetica, Arial-Unicode, Arial, Sans-serif"></text><text x="0" y="120" fill="#000000" font-size="5px" font-weight="bold" font-family="'Helvetica Neue', Helvetica, Arial-Unicode, Arial, Sans-serif"></text></svg>